<svg width="1280" height="1280" viewBox="0 0 1280 1280" fill="none" xmlns="http://www.w3.org/2000/svg">
<g clip-path="url(#clip0_2008_178)">
<rect width="1280" height="1280" fill="black"/>
<circle cx="640" cy="640" r="630" stroke="white" stroke-width="20"/>
<path d="M172.805 593.188C162.601 594.622 151.22 479.202 176.2 434.044C189.674 403.323 260.343 352.085 293.555 328.931C298.36 325.581 304.513 330.638 302.051 335.953C290.695 360.468 271.037 395.77 233.863 440.291C187.714 488.6 180.483 586.129 173.841 592.675C173.562 592.949 173.192 593.134 172.805 593.188Z" fill="#3232FF"/>
<path d="M362.323 416.376C297.093 491.154 288.354 555.444 281.555 552.46C273.761 549.04 306.305 462.756 316.298 439.972C343.21 378.615 356.743 340.123 340.09 314.452C338.006 311.238 338.791 306.715 342.064 304.726C380.626 281.29 372.147 257.15 373.92 244.374C374.269 241.861 376.8 240.65 378.826 242.177C395.116 254.451 431.24 324.69 362.323 416.376Z" fill="#3232FF"/>
<path d="M182.312 695.905C179.583 653.677 231.792 502.763 257.787 457.864C260.326 453.479 265.002 455.168 264.175 460.167C257.209 502.327 221.905 599.701 244.336 675.215C251.373 698.907 280.91 719.24 304.825 734.25C309.963 737.475 307.672 743.564 301.81 742.002C275.663 735.037 241.798 723.248 189.954 731.197C187.501 731.573 185.038 730.424 183.719 728.321C170.536 707.308 124.952 646.288 118.702 611.968C118.648 611.669 118.576 611.387 118.479 611.098C106.706 575.963 111.018 530.184 116.598 508.429C117.841 503.583 122.193 504.292 122.958 509.236C125.285 524.285 129.881 544.877 143.487 558.888C145.6 561.064 146.056 564.444 144.964 567.274C134.723 593.802 153.163 662.085 179.945 696.873C180.693 697.845 182.391 697.128 182.312 695.905Z" fill="#3232FF"/>
<path d="M448.385 1071.95C446.595 1082.1 333.339 1057.26 298.122 1019.54C273.077 997.229 246.199 914.166 234.448 875.416C232.748 869.809 239.457 865.518 243.75 869.503C263.549 887.882 291.039 917.492 321.881 966.614C353.552 1025.45 444.046 1062.46 448.217 1070.8C448.392 1071.15 448.452 1071.56 448.385 1071.95Z" fill="#7700FF"/>
<path d="M338.839 837.017C389.78 922.18 448.205 950.36 443.267 955.906C437.606 962.264 365.626 904.64 347.052 888.093C297.03 843.531 264.615 818.761 235.061 826.671C231.362 827.661 227.303 825.517 226.424 821.788C216.058 777.861 190.485 778.467 178.887 772.833C176.605 771.724 176.235 768.942 178.313 767.487C195.018 755.782 272.962 743.122 338.839 837.017Z" fill="#7700FF"/>
<path d="M548.984 1094.65C507.991 1084.19 380.638 987.89 345.982 949.285C342.598 945.515 345.648 941.589 350.146 943.92C388.078 963.575 469.75 1027.25 548.479 1029.25C573.179 1029.87 601.64 1008.06 623.301 989.945C627.955 986.053 633.036 990.115 629.74 995.209C615.037 1017.93 593.364 1046.5 584.9 1098.28C584.5 1100.73 582.647 1102.72 580.24 1103.32C556.187 1109.37 484.085 1133.88 449.522 1129.22C449.22 1129.18 448.93 1129.16 448.626 1129.17C411.582 1129.51 369.388 1111.26 350.429 1099.23C346.205 1096.55 348.224 1092.63 353.161 1093.43C368.188 1095.86 389.187 1097.85 406.713 1089.24C409.435 1087.9 412.789 1088.51 415.142 1090.43C437.2 1108.37 507.821 1111.92 549.173 1097.2C550.328 1096.79 550.172 1094.95 548.984 1094.65Z" fill="#7700FF"/>
<path d="M990.803 957.605C999.9 962.444 941.285 1062.51 894.54 1084.36C865.587 1101.29 778.307 1101.19 737.832 1100.4C731.976 1100.28 729.97 1092.57 735.085 1089.72C758.678 1076.56 795.325 1059.56 851.561 1045.4C917.283 1033.45 980.443 958.801 989.663 957.411C990.049 957.352 990.458 957.421 990.803 957.605Z" fill="#40CD00"/>
<path d="M733.582 989.221C830.294 967.076 875.143 920.203 878.89 926.614C883.185 933.964 806.155 984.634 784.682 997.191C726.855 1031.01 693.288 1054.19 691.676 1084.75C691.474 1088.58 688.181 1091.77 684.364 1091.46C639.395 1087.75 632.07 1112.26 623.128 1121.55C621.369 1123.38 618.61 1122.87 617.868 1120.45C611.902 1100.94 623.95 1022.88 733.582 989.221Z" fill="#40CD00"/>
<path d="M1043.47 868.915C1020.86 904.683 889.946 996.079 842.532 1017.12C837.901 1019.17 835.111 1015.06 838.717 1011.5C869.127 981.487 954.906 923.467 981.133 849.187C989.362 825.882 977.414 792.065 966.886 765.861C964.625 760.231 970.056 756.652 973.881 761.362C990.941 782.371 1011.41 811.819 1058.02 835.87C1060.23 837.008 1061.55 839.386 1061.38 841.863C1059.7 866.614 1060.72 942.781 1045.61 974.221C1045.48 974.495 1045.37 974.766 1045.28 975.056C1034.16 1010.4 1003.77 1044.9 986.469 1059.22C982.616 1062.41 979.511 1059.28 981.798 1054.83C988.758 1041.29 997.14 1021.93 994.366 1002.59C993.935 999.588 995.552 996.586 998.098 994.939C1021.97 979.499 1047.18 913.414 1045.95 869.524C1045.92 868.298 1044.12 867.879 1043.47 868.915Z" fill="#40CD00"/>
<path d="M1049.25 406.642C1056.67 399.483 1133.69 486.168 1140.02 537.389C1147.17 570.165 1120.11 653.167 1106.85 691.426C1104.93 696.961 1096.98 696.488 1095.85 690.74C1090.63 664.23 1085.79 624.112 1089.7 566.238C1098.65 500.021 1047.19 416.867 1048.72 407.666C1048.78 407.281 1048.97 406.913 1049.25 406.642Z" fill="#FF0300"/>
<path d="M999.828 661.114C1008.66 562.265 977.951 505.115 985.205 503.532C993.52 501.716 1017.89 590.656 1023.2 614.964C1037.48 680.426 1049.15 719.523 1077.71 730.5C1081.28 731.875 1083.3 735.996 1081.82 739.529C1064.4 781.162 1085.44 795.707 1091.52 807.085C1092.71 809.323 1091.37 811.791 1088.84 811.747C1068.45 811.394 997.949 775.81 999.828 661.114Z" fill="#FF0300"/>
<path d="M981.203 329.133C1008.23 361.691 1054.67 514.479 1060.02 566.087C1060.54 571.127 1055.77 572.51 1053.5 567.98C1034.36 529.776 1005.7 430.242 943.183 382.338C923.568 367.309 887.724 368.225 859.556 370.142C853.504 370.554 851.78 364.281 857.44 362.098C882.687 352.36 917.011 341.987 954.283 305.074C956.046 303.327 958.714 302.809 961.017 303.734C984.03 312.984 1056.76 335.548 1081.99 359.639C1082.21 359.849 1082.43 360.035 1082.68 360.212C1112.85 381.715 1136.26 421.286 1144.53 442.167C1146.37 446.818 1142.44 448.803 1138.91 445.253C1128.19 434.447 1112.37 420.49 1093.13 417.154C1090.14 416.636 1087.78 414.17 1087 411.238C1079.7 383.756 1024.66 339.355 982.549 326.957C981.373 326.611 980.42 328.189 981.203 329.133Z" fill="#FF0300"/>
<path d="M545.388 180.871C540.872 171.607 647.094 125.114 697.749 134.923C731.122 138.248 801.676 189.644 833.953 214.085C838.623 217.621 835.717 225.037 829.902 224.337C803.084 221.11 763.445 213.317 709.628 191.711C649.436 162.736 554.473 185.995 546.196 181.698C545.85 181.518 545.56 181.223 545.388 180.871Z" fill="#FF5900"/>
<path d="M772.063 306.527C680.808 267.58 616.981 279.133 617.717 271.743C618.561 263.271 710.655 267.569 735.405 270.035C802.059 276.676 842.838 277.656 862.1 253.881C864.511 250.905 869.055 250.254 871.957 252.753C906.156 282.196 926.488 266.671 939.183 264.409C941.68 263.964 943.613 265.998 942.788 268.397C936.151 287.688 880.533 343.758 772.063 306.527Z" fill="#FF5900"/>
<path d="M450.665 221.657C489.971 206.011 649.591 209.045 700.313 219.9C705.266 220.961 705.106 225.93 700.097 226.689C657.86 233.09 554.369 229.595 489.503 274.269C469.152 288.285 458.946 322.667 452.065 350.057C450.587 355.942 444.09 355.643 443.763 349.584C442.306 322.557 443.05 286.698 419.472 239.833C418.356 237.616 418.687 234.918 420.279 233.013C436.184 213.978 480.114 151.757 510.814 135.206C511.082 135.061 511.327 134.905 511.572 134.724C541.34 112.667 586.199 102.623 608.607 101.209C613.598 100.894 614.269 105.253 609.805 107.508C596.216 114.372 578.058 125.108 568.94 142.381C567.524 145.064 564.452 146.543 561.424 146.378C533.037 144.833 473.813 183.476 449.012 219.704C448.32 220.716 449.526 222.111 450.665 221.657Z" fill="#FF5900"/>
<path d="M741.162 685.532C751.588 691.386 702.886 746.586 686.392 749.503C669.032 752.572 646.868 712.996 650.998 703.854C651.095 703.638 651.192 703.433 651.296 703.22C654.588 696.478 675.066 699.271 695.891 695.013C717.045 690.687 732.631 680.743 741.162 685.532Z" fill="white"/>
<path d="M671.845 581.351C676.621 595.168 684.112 638.147 683.84 643.753C683.522 650.293 680.692 654.463 675.211 659.064C668.851 664.403 637.981 675.595 627.013 669.438C616.046 663.28 592.691 627.134 598.207 612.954C603.111 600.35 642.647 571.677 654.388 569.63C664.256 567.492 667.82 569.707 671.845 581.351Z" fill="white"/>
<path d="M711.087 569.789C719.896 564.993 766.893 619.354 759.816 633.618C752.74 647.881 730.05 648.579 722.858 644.542C714.084 639.616 719.549 626.161 715.214 608.578C710.821 590.755 702.755 574.325 711.087 569.789Z" fill="white"/>
<path d="M526.57 618.807C512.677 611.007 546.445 503.272 557.957 498.217C569.468 493.162 632.361 512.154 630.156 527.232C627.952 542.311 593.298 559.329 582.611 570.606C571.924 581.882 536.075 624.143 526.57 618.807Z" fill="white"/>
<path d="M628.144 749.212C618.315 759.203 536.762 723 532.407 707.506C527.923 691.551 555.685 645.71 565.691 648.448C575.698 651.187 585.487 681.637 596.322 698.278C606.758 714.306 635.593 738.882 629.661 747.306C629.199 747.962 628.708 748.64 628.144 749.212Z" fill="white"/>
<path d="M828.383 838.157C830.213 860.3 628.667 929.511 597.958 912.271C568.189 895.559 524.692 790.871 541.148 764.592C542.086 763.096 543.931 762.569 545.615 763.111C563.138 768.748 612.803 794.777 666.176 806.6C722.652 819.11 826.885 820.04 828.383 838.157Z" fill="white"/>
<path d="M893.593 515.802C915.453 517.998 911.436 747.849 888.304 775.228C887.674 775.973 887.273 776.764 886.735 777.579C875.717 794.291 741.168 797.441 721.519 778.418C720.289 777.227 720.328 775.384 721.336 774.003C732.803 758.295 784.155 712.955 812.691 666.182C842.752 616.907 879.017 514.338 893.593 515.802Z" fill="white"/>
<path d="M631.461 477.096C624.861 451.43 815.779 460.662 841.335 477.775C841.624 477.969 841.834 478.16 842.053 478.43C856.675 496.448 818.757 587.052 799.008 600.609C797.817 601.427 796.28 601.398 795.026 600.679C775.382 589.403 749.091 544.99 727.977 531.281C706.132 517.098 633.769 486.07 631.461 477.096Z" fill="white"/>
<path d="M422.538 502.814C403.599 488.599 538.85 357.918 573.524 347.631C620.327 333.745 825.209 412.494 823.466 433.752C823.315 435.586 822.512 437.86 820.956 438.848C811.348 444.952 736.497 414.063 595.308 440.483C452.087 474.293 433.36 510.938 422.538 502.814Z" fill="white"/>
<path d="M525.615 883.541C484.357 876.193 335.536 650.356 359.62 607.622C377.407 576.061 484.463 510.08 499.981 517.461C500.486 517.701 500.977 517.985 501.496 518.194C522.146 526.533 481.319 558.12 480.711 650.649C479.937 768.484 538.661 874.742 527.362 883.241C526.856 883.622 526.24 883.652 525.615 883.541Z" fill="white"/>
</g>
<defs>
<clipPath id="clip0_2008_178">
<rect width="1280" height="1280" fill="white"/>
</clipPath>
</defs>
</svg>
